<svg viewBox="0 0 24 24" xmlns="http://www.w3.org/2000/svg"><path d="m20.2 0c1.4 0 2.5 1.1 2.6 2.5v21.5l-2.7-2.3-1.5-1.3-1.5-1.4.7 2.2h-14c-1.4 0-2.5-1.1-2.5-2.5v-16.2c-.1-1.4 1-2.5 2.4-2.5zm-6.1 5.7-.2.2c2.1.6 3.1 1.5 3.1 1.5-1.3-.7-2.5-1-3.7-1.1-.9-.1-1.7-.1-2.5 0h-.2c-.5 0-1.5.2-2.8.7-.5.2-.8.4-.8.4s1-1 3.2-1.5l-.1-.1s-1.7-.1-3.5 1.3c0 0-1.8 3.1-1.8 7 0 0 1 1.7 3.7 1.8 0 0 .4-.5.8-1-1.5-.5-2.1-1.4-2.1-1.4s.1.1.3.2h.1.1.1c.2.1.6.2.8.3.5.2 1.1.4 1.8.5.9.1 2 .2 3.2 0 .6-.1 1.2-.3 1.8-.5.4-.2.9-.4 1.4-.7 0 0-.6.9-2.2 1.4.3.5.8 1 .8 1 2.7-.1 3.8-1.8 3.9-1.7 0-3.9-1.8-7-1.8-7-1.7-1.3-3.2-1.3-3.4-1.3zm.2 4.4c.7 0 1.3.6 1.3 1.3s-.6 1.3-1.3 1.3-1.3-.6-1.3-1.3.6-1.3 1.3-1.3zm-4.6 0c.7 0 1.3.6 1.3 1.3s-.6 1.3-1.3 1.3-1.3-.6-1.3-1.3c.1-.7.6-1.3 1.3-1.3z"/></svg>