<svg viewBox="0 0 24 24" xmlns="http://www.w3.org/2000/svg"><path d="m10.1 5.1c.6-.1 1.2-.2 1.9-.2 5.5 0 9.1 5.6 10 7.1-.5.9-1.1 1.8-1.8 2.6-.3.4-.3 1 .1 1.3.2.1.4.2.6.2.3 0 .5-.1.7-.3.9-1 1.6-2.2 2.3-3.4.1-.3.1-.6 0-.8-.2-.4-4.4-8.6-11.9-8.6-.8 0-1.6.1-2.3.3-.5.1-.8.6-.7 1.1s.6.8 1.1.7z"/><path d="m23.7 22.4-22.1-22.1c-.4-.4-.9-.4-1.3 0s-.4.9 0 1.3l4.4 4.4c-1.9 1.6-3.4 3.4-4.5 5.6-.1.3-.1.6 0 .8.1.4 4.3 8.6 11.8 8.6 2.1 0 4.1-.7 5.9-1.8l4.5 4.5c.2.2.4.3.7.3.2 0 .5-.1.7-.3.3-.3.3-.9-.1-1.3zm-13.7-11.1 2.7 2.7c-.7.3-1.6.2-2.2-.4-.7-.6-.8-1.5-.5-2.3zm2 7.8c-5.5 0-9.1-5.6-10-7.1 1-1.8 2.4-3.4 4-4.7l2.7 2.7c-1 1.6-.8 3.7.6 5 .7.7 1.7 1 2.6 1 .8 0 1.5-.2 2.1-.6l2.5 2.5c-1.3.8-2.9 1.2-4.5 1.2z"/></svg>