<svg viewBox="0 0 24 24" xmlns="http://www.w3.org/2000/svg"><g><path d="m12 1.6c5.7 0 10.4 4.7 10.4 10.4s-4.7 10.4-10.4 10.4-10.4-4.7-10.4-10.4c0-2.8 1.1-5.4 3-7.3 2-2 4.6-3.1 7.4-3.1m0-1.6c-6.6 0-12 5.4-12 12s5.4 12 12 12 12-5.4 12-12-5.4-12-12-12z"/><path d="m12 6.5c2.2 0 3.7 1.2 3.7 2.9 0 1.1-.6 2.1-1.6 2.6-1 .6-1.3 1-1.3 1.7v.5h-2v-.5c-.2-1.1.4-2.1 1.4-2.5 1-.6 1.4-1 1.4-1.7-.1-.8-.8-1.3-1.5-1.2-.8 0-1.5.6-1.5 1.4h-2.3c0-1.9 1.4-3.2 3.7-3.2zm-1.5 9.8c0-.7.5-1.3 1.2-1.3s1.3.5 1.3 1.2-.5 1.3-1.2 1.3c0 0 0 0-.1 0-.6 0-1.2-.5-1.2-1.2z"/></g></svg>