<svg viewBox="0 0 24 24" xmlns="http://www.w3.org/2000/svg"><path d="m12 0c-6.6 0-12 5.4-12 12s5.4 12 12 12 12-5.4 12-12-5.4-12-12-12zm7.8 14.1s0 .1-.1.1c-.5.2-1 .5-1.4 1-.9 1.2-1.5 3-3 3h-6.2c-2.2 0-4-1.8-4-4v-.2c0-.1 0-.1.1-.1h3.5c.1 0 .1.1.1.1 0 .2 0 .5.1.7.2.4.6.7 1.1.7h1.7v-1.4h-1.7c-.1 0-.1-.1-.1-.1s0 0 0-.1c0 0 0-.1.1-.1.2-.2.4-.6.6-1 .2-.3.3-.6.4-.9 0-.1 0-.1.1-.2 0-.1.1-.2.1-.3s0-.2.1-.2c.1-.3.1-.5.1-.8 0-.1 0-.2 0-.3s0-.2 0-.3 0-.2 0-.3c0-.2-.1-.3-.1-.5v-.1c0-.1-.1-.2-.1-.3-.1-.3-.2-.7-.3-1 0-.1-.1-.2-.1-.4-.1-.2-.1-.3-.2-.5 0-.1-.1-.1-.1-.2s-.1-.1-.1-.2-.1-.1-.1-.2l-.4-.1v-.1l1.3.4h.2l.2.1h.1v-.8c0-.4.3-.7.7-.7.2 0 .4.1.5.2s.2.3.2.5v1.2h.1l.1.1s.1.1.2.1c.1.1.3.2.4.4 0 0 .1.1.1.1.2.2.5.4.7.7l.2.2c.1.1.1.2.2.2.1.1.2.2.2.3s.1.1.1.2c.1.1.2.3.3.4 0 .1.1.1.1.2.1.2.2.4.2.6v.1.2.6c0 .1 0 .2-.1.3 0 .1-.1.2-.1.3-.1.2-.2.3-.3.5 0 .1-.1.1-.1.2s-.1.1-.1.2c-.1.1-.1.2-.2.2-.1.1-.1.1-.2.2s-.2.2-.2.3-.1.1-.2.2-.1.1-.2.2-.2.1-.2.2l.1.1s0 0-.1 0h-1v1.3h1.3c.3 0 .6-.1.8-.3.3-.3.6-.5.8-.8h.1l3.7-1.1c.1 0 .1 0 .1.1v.9z"/></svg>