<svg viewBox="0 0 24 24" xmlns="http://www.w3.org/2000/svg"><g><path d="m12 24c-6.6 0-12-5.4-12-12s5.4-12 12-12 12 5.4 12 12-5.4 12-12 12zm0-23.5c-6.3 0-11.5 5.2-11.5 11.5s5.1 11.5 11.5 11.5c6.3 0 11.5-5.1 11.5-11.5 0-6.3-5.2-11.5-11.5-11.5z"/><path d="m12 17.4c-.1 0-.1 0-.2-.1l-4.2-4.2c-.1-.1-.1-.3 0-.4s.3-.1.4 0l4.1 4.1 4.1-4.1c.1-.1.3-.1.4 0s.1.3 0 .4l-4.2 4.2c-.3.1-.3.1-.4.1z"/><path d="m12 13.2c-.1 0-.1 0-.2-.1l-4.3-4.2c-.1-.1-.1-.3 0-.4s.3-.1.4 0l4.1 4.1 4-4.1c.1-.1.3-.1.4 0s.1.3 0 .4l-4.2 4.2c-.1.1-.1.1-.2.1z"/></g></svg>