<svg viewBox="0 0 1920 100" xmlns="http://www.w3.org/2000/svg" xmlns:xlink="http://www.w3.org/1999/xlink"><linearGradient id="a" gradientUnits="userSpaceOnUse" x1="960" x2="960" y1="100" y2="0"><stop offset=".25"/><stop offset="1" stop-color="#fff" stop-opacity="0"/></linearGradient><path d="m1633.2 90.5c4 .7-1.7 2.5 7.1 2.1 1.5-3 17.8.3 4.1-2.5 8.6-.8 9.1.6 19.1.5-3.2-1.9 9.1-6.5 17.6-7.3-.5.8 1.4 1.7 2.3 2.2h1c1 .3.8.3.3 0 16.7.4 26 1.7 42 1.8 1.5.7 9.4 1.6 6 2.9 2.4-.5 4.5-1.5 9.6-1.6 9.7 2.6-11.2.4-3.8 3.5.6-1.7 13.1-2.3 20.2-3.4-2.2-2.7-16.6-.6-23.8.5 0-3.7 12.5-7.5 29.6-9.1 13.6-.9 5.9 2.4 8.2 1.9 25.5.7 21.8-6.3 42.9-3.6 8.4 2.4.3 4.7 2.2 6.4-11.1.8-17-1.6-24.5-1.5l9.2 1.1c-3.5.8-10.9 1.3-14.9.6 7 2.1 43.1.6 62.8 2.6 3.5-.8 9.5-1.6 6.7-2.5l-6.2.3c-5.7-1.9 11.7-2.6 3.9-3.5 8.4-1.3 17.7-3.3 29.5-2.2l2.1 2.6c-.9-.7-7.7-1.5-10.9-.7 4.9-1.2 18 3.7 23.4.2l-8.2-1.9c4-.6 8.4-1.6 13.1-2.3h16.1v-77.6h-1919.9v77.6h4.6c-1.6 2.9 14.2 6.4 13.1 10 9.9-3.7 26.1 5.5 42.3.2 3.6.9-3.1 1.3-1.1 2.3 4.1-1.7 9.1-2.1 18.3-1.3l-1 .4c25.9-.4 37 1.4 66.1 2.5l-2.2-2.1c3.5.1 7.1.6 10.5 1.4 7.2-3.1-17.6-.2-11-3.6 8.3 4.2 44.1.1 49.7 4.9 9.6 0-2.8-2.4 6.8-2.4l2.5 1.3 2.4-1.7c6.3.3 9.5 1.9 9.7 3-2 0-4 .2-6 .4 7.6 1.4 20.9-.2 25.1-.1l-8.4-.7c26.2-1.2 58.3.5 83.6-2.1l-1.9-1c19.4-1.8 15.5 1.1 36.8.3l-.8.2c5.2-1 10.5-1.5 15.8-1.3-5.4 1.1 10.1 2.2 3.1 3.5 21-1.9 10.4-1.5 24.3-5.1l3.2 1.6c4.7-1.5 5.1-2.2 15.7-2.6-8.7 1.4 6.8 2.5-3 4.3 22.3 3.6 33.1-3.5 43.3 1.7 10.2-4.5-19.3-2.5-13.5-3.5-4.8-1.5 8.4-3.3 15.4-2.9 7.1.1 12.1 5.7 30 5.7-1.8 0-1.9.3-3.7.3 6.7 1.1 13.1-1.5 21.3.3 4.6-2.7 10.7.2 12-3.3l-16.4.8c9.3-.9 18-4.9 33.4-2.9-1.2.7-5.8 1.6-8.9 2.1 1.5.3 3 .4 4.5.3-.3.1.3.1 1.3-.1 2.5-.3 5-.3 7.4.2-1.3 3.4-20 .7-29.9 3.3 4.8 1.5 18.9-2.5 13.8 1.3 7.2-4.7 17.6.6 29.8-3l-.8 2.1c3.1-.7 6.3-1.1 9.4-1.2l-6.4 2.7c9.8-2.3 18.9 2 28.3.8-19.7 0-4.4-2.5-12.7-4 24-2.7 14.2 5.2 40.1 4.5-4.2 0-12.2-1.4-7-2.2 5.2.4 12 1.2 15.2 2.3 18-.4-2.8-2.1 4.9-3.4 6.1 2.5 8.9-1 16.8-1.8l.1 2.1c20.5 1.4 5.5-4.4 24-2.7l-7.8 2.9 9.6-.7-2 2.4c10.5-1.8 13.8-1.3 24-.6-2.4-1.5 1.4-3.8 10.5-3.9 6.2 1.3-3.5 2 9.4 1.7-2.9 1.3-6.1 3-11.7 1-.6.7-2.9 1.3-3.5 2 6.7 1.4 16.8.4 21.5.3-1.7 0-3.4-.2-5-.5l18.7-2.9c2.9.8.6 1.4-1.7 2 3.8-.2 6.4-1.2 12-1.4-1.4 1.7-1.1 3.5-9 4.3l17.8-1.9c1.2.7 9.1 2.1 6.8 2.7 9.9 1 24.2-3.3 37.3-1.9 1.6-.5 3.2-.8 4.8-.9 12.3.4 23.2 2.5 37.8.2l8.3 3.1c11.4-.7-11.2-3.9 7.8-5 13.5-1 5 2.6 9.7 3.5 6.7-1.5 18.4-4.6 30.7-2.1-4.1.6-7.3.1-11.1.3l9.4 1.7c-11.4 2.8-19.6 1.8-10.8 4.2 1.4-5.9 36.6-.5 38-6.4l6.2 1.3c-1.8-.1-2.1.3-3.8.2 12.1 2.9 9-4.3 24.6-3.4 5.4.5 9.2 1.3 5.5 2l12.1-1.4c2.9.1 2.8.8.8 1l16.8-.4-.1.2c2.6-.9 8.6-2.3 11.5-2.9 4.7.9-2.4.6-1.2 1.4l10.2-1.4c4.2 1.5-4.3 3-11.4 2.8 9.5 5.9 8.5-1.5 29 2l-9.6.7c6.2 3.4 13.7 2.2 24.6 4.3-2.6-1.1-21.8-5.3-10.7-6.8 4.4.6 8.9.4 13.2-.5 0 2.1 5.9 1.6 13.2 1.5l-.5 2.8c7.9-.8 7.3-2.2 11.9-3.5 8.8.3 10.6 2.5 12.7 4.3 14.1.5-9.7-3.5 7-4 11.7 1.1 20 0 34-1.7 8.2 1-1.4 1.7 1.5 2.5l7.3-2.2c1.8.1 1.2.7.9 1.1 6.1-.8.5-2.8 10.2-3.5 2.6-3.1 19.8 4.5 31.7 1.1 2.9.8-1.4 1.7-.5 2.8 16.4-2.2 14-1.6 27.5-4.7l11.4 1.9c-8.4-2.1 2.4-4.6 11.8-6.6-3-1-5.5-1.9-7.2-2.3l15-1.5c1.8.5.3 1.4-2.2 2.6 1-.2 2-.5 2.8-.7 5.4 1 2.6 2.6-1.3 4.2-1.8-.6-3.6-1.1-5.4-1.7-3.7 1.7-7.2 3.5-6.4 5.2 1.6-.4 3.3-.7 4.9-.7-.5.2-.9.4-1.2.8-.9.3-.9.7 1.3 1.1-.3-.1-.7-.4-.9-.7 1.4-.2 2.9-.6 4.2-1.1l3.4 3.1.8-1.2 19.6 2c14.1-3.1 26.3-7.7 48.6-8.9-5.5 2.3-1.2 3.7-1.5 6.4-6.1-2.9-17.3 1.2-28.9.6 6 .3 4.7 1.6 3.2 2l20.6-2.6c-.5 2.2 4.4 1.7 9.8 2.6-4.1-4.4 15.4-2.9 23.8-4.2.5 1.5-1.5 3-11.7 2.6 11.3 3.3 14.6-5.1 25.7-2.3-2.5 0-3.8-.2-4.8.5 5.8-1.3 20.1-.2 16.8 1.1h-2.5c16.6.6 50.5.2 53-3.5.2.5-2.2 4.5-3.2 5.2l29.7-12.4c-2.5 3 6.3 10-4.4 12.2l-4.2-5.2-8.8 7c3.8-1.7 8.1-2.3 12.3-1.6-.4.1-.8.1-1.2.2 5.7.8 11.5.7 17.2-.1-2.7-.5-6.7-4.6-3-4.9 10 3.5 7.1 2 19 4.9-3.2-1 1.2-5.6 7.3-5.4-1 .7.5 4.9-1.8 5.4l15.2-4.6c-2.7 1.1.3 4 3.6 5.3-1.6-1 13.7.1 18-.3l-6.7-1.2c17.9.8 17.8-6.8 35.6-6.5-2.2 1-5.4 6.2 3.7 6.9 4.2-2.5 18.4-12 34.2-13.9l3 1.4 12.1-1.6c-7.5 3.8-28.7 11.6-40.3 14.7 6.7 1.2 1.9 1.7 11.9 1.6 3.5 1.4-5.5 2-8.5 2.1l23.4.9c-1-2.9 17.9-2.9 17-5.3l-25.4 3c-1-2.9 14.7-8.3 31.3-7.7 4.2 1.2-3.2 5.2-2.8 6.2 2.2-1 15.8-1.9 17.3-1.2l-7 1.5c9.2 1.1 15.1-3.8 26.2-1 3.8.2 11.4 3.8 12.1 2.1-6.2-3.4-7.4-13.7-3.2-16.2 1.3.2 20.1 3.3 24.5 4.9 6.3 2.6-9.5 6.2-4.1 8.5" fill="url(#a)"/></svg>