<svg viewBox="0 0 100 1920" xmlns="http://www.w3.org/2000/svg" xmlns:xlink="http://www.w3.org/1999/xlink"><linearGradient id="a" gradientTransform="matrix(0 1 1 0 -912.15 910.0497)" gradientUnits="userSpaceOnUse" x1="50.0003" x2="50.0003" y1="912.1" y2="1012.1"><stop offset=".25"/><stop offset="1" stop-color="#fff" stop-opacity="0"/></linearGradient><path d="m9.5 1633.3c-.7 4-2.5-1.7-2.1 7.1 3 1.5-.3 17.8 2.5 4.1.8 8.6-.6 9.1-.5 19.1 1.9-3.2 6.5 9.1 7.3 17.6-.8-.5-1.7 1.4-2.2 2.3v1c-.3 1-.3.8 0 .3-.4 16.7-1.7 26-1.8 42-.7 1.5-1.6 9.4-2.9 6 .5 2.4 1.5 4.5 1.6 9.6-2.6 9.7-.4-11.2-3.5-3.8 1.7.6 2.3 13.1 3.4 20.2 2.7-2.2.6-16.6-.5-23.8 3.7 0 7.5 12.5 9.1 29.6.9 13.6-2.4 5.9-1.9 8.2-.7 25.5 6.3 21.8 3.6 42.9-2.4 8.4-4.7.3-6.4 2.2-.8-11.1 1.6-17 1.5-24.5l-1.1 9.2c-.8-3.5-1.3-10.9-.6-14.9-2.1 7-.6 43.1-2.6 62.8.8 3.5 1.6 9.5 2.5 6.7l-.3-6.2c1.9-5.7 2.6 11.7 3.5 3.9 1.3 8.4 3.3 17.7 2.2 29.5l-2.6 2.1c.7-.9 1.5-7.7.7-10.9 1.2 4.9-3.7 18-.2 23.4l1.9-8.2c.6 4 1.6 8.4 2.3 13.1v16.1h77.6v-1919.9h-77.6v4.6c-2.9-1.6-6.4 14.2-10 13.1 3.7 9.9-5.5 26.1-.2 42.3-.9 3.6-1.3-3.1-2.3-1.1 1.7 4.1 2.1 9.1 1.3 18.3l-.4-1c.4 25.9-1.4 37-2.5 66.1l2.1-2.2c-.1 3.5-.6 7.1-1.4 10.5 3.1 7.2.2-17.6 3.6-11-4.2 8.3-.1 44.1-4.9 49.7 0 9.6 2.4-2.8 2.4 6.8l-1.3 2.5 1.7 2.4c-.3 6.3-1.9 9.5-3 9.7 0-2-.2-4-.4-6-1.4 7.6.2 20.9.1 25.1l.7-8.4c1.2 26.2-.5 58.3 2.1 83.6l1-1.9c1.8 19.4-1.1 15.5-.3 36.8l-.2-.8c1 5.2 1.5 10.5 1.3 15.8-1.1-5.4-2.2 10.1-3.5 3.1 1.9 21 1.5 10.4 5.1 24.3l-1.6 3.2c1.5 4.7 2.2 5.1 2.6 15.7-1.4-8.7-2.5 6.8-4.3-3-3.6 22.3 3.5 33.1-1.7 43.3 4.5 10.2 2.5-19.3 3.5-13.5 1.5-4.8 3.3 8.4 2.9 15.4-.1 7.1-5.7 12.1-5.7 30 0-1.8-.3-1.9-.3-3.7-1.1 6.7 1.5 13.1-.3 21.3 2.7 4.6-.2 10.7 3.3 12l-.8-16.4c.9 9.3 4.9 18 2.9 33.4-.7-1.2-1.6-5.8-2.1-8.9-.3 1.5-.4 3-.3 4.5-.1-.3-.1.3.1 1.3.3 2.5.3 5-.2 7.4-3.4-1.3-.7-20-3.3-29.9-1.5 4.8 2.5 18.9-1.3 13.8 4.7 7.2-.6 17.6 3 29.8l-2.1-.8c.7 3.1 1.1 6.3 1.2 9.4l-2.7-6.4c2.3 9.8-2 18.9-.8 28.3 0-19.7 2.5-4.4 4-12.7 2.7 24-5.2 14.2-4.5 40.1 0-4.2 1.4-12.2 2.2-7-.4 5.2-1.2 12-2.3 15.2.4 18 2.1-2.8 3.4 4.9-2.5 6.1 1 8.9 1.8 16.8l-2.2.1c-1.4 20.5 4.4 5.5 2.7 24l-2.9-7.8.7 9.6-2.4-2c1.8 10.5 1.3 13.8.6 24 1.5-2.4 3.8 1.4 3.9 10.5-1.3 6.2-2-3.5-1.7 9.4-1.3-2.9-3-6.1-1-11.7-.7-.6-1.3-2.9-2-3.5-1.4 6.7-.4 16.8-.3 21.5 0-1.7.2-3.4.5-5l2.9 18.7c-.8 2.9-1.4.6-2-1.7.2 3.8 1.2 6.4 1.4 12-1.7-1.4-3.5-1.1-4.3-9l1.9 17.8c-.7 1.2-2.1 9.1-2.7 6.8-1 9.9 3.3 24.2 1.9 37.3.5 1.6.8 3.2.9 4.8-.4 12.3-2.5 23.2-.2 37.8l-3.1 8.3c.7 11.4 3.9-11.2 5 7.8 1 13.5-2.6 5-3.5 9.7 1.5 6.7 4.6 18.4 2.1 30.7-.6-4.1-.1-7.3-.3-11.1l-1.7 9.4c-2.8-11.4-1.8-19.6-4.2-10.8 5.9 1.4.5 36.6 6.4 38l-1.3 6.2c.1-1.8-.3-2.1-.2-3.8-2.9 12.1 4.3 9 3.4 24.6-.5 5.4-1.3 9.2-2 5.5l1.4 12.1c-.1 2.9-.8 2.8-1 .8l.4 16.8-.1-.1c.9 2.6 2.3 8.6 2.9 11.5-.9 4.7-.6-2.4-1.4-1.2l1.4 10.2c-1.5 4.2-3-4.3-2.8-11.4-5.9 9.5 1.5 8.5-2 29l-.7-9.6c-3.4 6.2-2.2 13.7-4.3 24.6 1.1-2.6 5.3-21.8 6.8-10.7-.6 4.4-.4 8.9.5 13.2-2.1 0-1.6 5.9-1.5 13.2l-2.8-.5c.8 7.9 2.2 7.3 3.5 11.9-.3 8.8-2.5 10.6-4.3 12.7-.5 14.1 3.5-9.7 4 7-1.1 11.7 0 20 1.7 34-1 8.2-1.7-1.4-2.5 1.5l2.2 7.3c-.1 1.8-.7 1.2-1.1.9.8 6.1 2.8.5 3.5 10.2 3.1 2.6-4.5 19.8-1.1 31.7-.8 2.9-1.7-1.4-2.8-.5 2.2 16.4 1.6 14 4.7 27.5l-1.9 11.4c2.1-8.4 4.6 2.4 6.6 11.8 1-3 1.9-5.5 2.3-7.2l1.5 15c-.5 1.8-1.4.3-2.6-2.2.2 1 .5 2 .7 2.8-1 5.4-2.6 2.6-4.2-1.3.6-1.8 1.1-3.6 1.7-5.4-1.7-3.7-3.5-7.2-5.2-6.4.4 1.6.7 3.3.7 4.9-.2-.5-.4-.9-.8-1.2-.3-.9-.7-.9-1.1 1.3.1-.3.4-.7.7-.9.2 1.4.6 2.9 1.1 4.2l-3.1 3.4 1.2.8-2 19.6c3.1 14.1 7.7 26.3 8.9 48.6-2.3-5.5-3.7-1.2-6.4-1.5 2.9-6.1-1.2-17.3-.6-28.9-.3 6-1.6 4.7-2 3.2l2.6 20.6c-2.2-.5-1.7 4.4-2.6 9.8 4.4-4.1 2.9 15.4 4.2 23.8-1.5.5-3-1.5-2.6-11.7-3.3 11.3 5.1 14.6 2.3 25.7 0-2.5.2-3.8-.5-4.8 1.3 5.8.2 20.1-1.1 16.8v-2.5c-.6 16.6-.2 50.5 3.5 53-.5.2-4.5-2.2-5.2-3.2l12.4 29.7c-3-2.5-10 6.3-12.2-4.4l5.2-4.2-7-8.8c1.7 3.8 2.3 8.1 1.6 12.3-.1-.4-.1-.8-.2-1.2-.8 5.7-.7 11.5.1 17.2.5-2.7 4.6-6.7 4.9-3-3.5 10-2 7.1-4.9 19 1-3.2 5.6 1.2 5.4 7.3-.7-1-4.9.5-5.4-1.8l4.6 15.2c-1.1-2.7-4 .3-5.3 3.6 1-1.6-.1 13.7.3 18l1.2-6.7c-.8 17.9 6.8 17.8 6.5 35.6-1-2.2-6.2-5.4-6.9 3.7 2.5 4.2 12 18.4 13.9 34.2l-1.4 3 1.6 12.1c-3.8-7.5-11.6-28.7-14.7-40.3-1.2 6.7-1.7 1.9-1.6 11.9-1.4 3.5-2-5.5-2.1-8.5l-1 23.4c2.9-1 2.9 17.9 5.3 17l-3-25.4c2.9-1 8.3 14.7 7.7 31.3-1.2 4.2-5.2-3.2-6.2-2.8 1 2.2 1.9 15.8 1.2 17.3l-1.5-7c-1.1 9.2 3.8 15.1 1 26.2-.2 3.8-3.8 11.4-2.1 12.1 3.4-6.2 13.7-7.4 16.2-3.2-.2 1.3-3.3 20.1-4.9 24.5-2.6 6.3-6.2-9.5-8.5-4.1" fill="url(#a)"/></svg>