<svg viewBox="0 0 1600 900" xmlns="http://www.w3.org/2000/svg"><path d="m1590.1 780.8c1.1-7.3 3.1 4 3.1 9.9.9-31.6-7.3-25.6-7.1-45.2 0-3.1.3-6.8.8-11.4 1.9 10.6 5-6.2 5.6 11.4h.4c-.3-11-4.1-21.9-1.4-33.5l-3.8 9c.1-4.4.7-8.9 1.7-13.3l-3 1.1c5.1-17.2-2.4-31.9 4.2-42.1-5.4 7.2.3-12.7-1.8-19.5-3.7 14 .1 40.4-4.7 42.2-.7-3.4-.7-6.9-.3-10.4.3-1.4.3-2.3.1-1.8.1-2.1 0-4.2-.4-6.4-.7 4.4-2 10.9-3 12.6-2.8-21.7 2.8-34 4.1-47.1l-1.1 23.1c4.9-1.8.8-10.4 4.7-16.9-2.5-11.6 1.1-20.6-.4-30.1 0 2.5-.4 2.7-.4 5.2 0-25.3-7.9-32.3-8-42.3-.6-9.9 2-28.5 4.1-21.7 1.4-8.2-1.4 33.5 4.9 19.1-7.3-14.4 2.7-29.6-2.4-61.1-2.5 13.8-4.1-8-6.1 4.2.6-15 1.6-15.5 3.7-22.2l-2.3-4.5c5.1-19.6 4.5-4.7 7.2-34.3-1.8 9.9-3.4-12-4.9-4.4-.3-7.5.4-15 1.8-22.3l-.3 1.1c1.1-30.1-3-24.6-.4-51.9l1.4 2.7c3.7-35.7 1.3-81 3-118l1 11.9c-.1-5.9 2.1-24.7.1-35.4-.3 2.8-.6 5.6-.6 8.5-1.6-.3-3.8-4.8-4.2-13.7l2.4-3.4-1.8-3.5c0-13.6 3.4 4 3.4-9.6-6.1-7.1-2-48.9-5.5-65.7-.4-1.8-.8-3.3-1.4-4.5 1.9-3.8 2.4-.3 2.6 4.5h.7c-.1-1.3-.2-2.5-.2-3.8l3 3.1c-1.6-41.1-4.1-56.7-3.5-93.3l-.6 1.4c-1.1-13-.6-20 1.8-25.8-1.4-2.8-2 6.6-3.2 1.6 2.7-8.1 2.7-16.3 1.9-24-1.8-.2-3.7-.5-5.5-.9 1.9-.3 3.7-.4 5.4-.4-.1-.7-.2-1.4-.3-2.1l-2.5-.5c.8-.2 1.6-.4 2.4-.6-.1-.5-.1-.9-.2-1.4-16.6 1-41.9-.8-43.3 5.3l-9.4-2c2.7.2 3.2-.5 5.7-.3-18.3-4.4-13.6 6.5-37.2 5.1-8.2-.8-13.9-2-8.3-3l-18.3 2.1c-4.4-.2-4.2-1.2-1.2-1.5l-13.1.3-12.3.3.2-.3c-3.9 1.4-13 3.5-17.4 4.4-7.1-1.4 3.6-.9 1.8-2.1l-15.4 2.1c-6.4-2.3 6.5-4.5 17.2-4.2-14.4-8.9-12.9 2.3-43.9-3l14.5-1.1c-9.4-5.1-20.7-3.3-37.2-6.5 3.9 1.7 33 8 16.2 10.3-6.7-.9-13.5-.6-20 .8 0-3.2-8.9-2.4-20-2.3l.8-4.2c-12 1.2-11 3.3-18 5.3-13.3-.5-16-3.8-19.2-6.5-21.3-.8 14.7 5.3-10.6 6.1-17.7-1.7-30.3 0-51.4 2.6-12.4-1.5 2.1-2.6-2.3-3.8l-11 3.3c-2.7-.2-1.8-1.1-1.4-1.7-9.2 1.2-.8 4.2-15.4 5.3-3.9 4.7-30-6.8-48-1.7-4.4-1.2 2.1-2.6.8-4.2-24.8 3.3-21.2 2.4-41.6 7.1l-17.2-2.9c12.7 3.2-3.6 7-17.9 10 4.5 1.5 8.3 2.9 10.9 3.5l-22.7 2.3c-2.7-.8-.5-2.1 3.3-3.9-1.5.3-3 .8-4.2 1.1-8.2-1.5-3.9-3.9 2-6.4 2.7.9 5.4 1.7 8.2 2.6 5.6-2.6 10.9-5.3 9.7-7.9-2.4.6-5 1.1-7.4 1.1.8-.3 1.4-.6 1.8-1.2 1.4-.5 1.4-1.1-2-1.7.5.2 1.1.6 1.4 1.1-2.1.3-4.4.9-6.4 1.7l-5.1-4.7-1.2 1.8-29.7-3c-21.3 4.7-39.8 11.6-73.5 13.5 8.3-3.5 1.8-5.6 2.3-9.7 9.2 4.4 26.2-1.8 43.7-.9-9.1-.5-7.1-2.4-4.8-3l-31.2 3.9c.8-3.3-6.7-2.6-14.8-3.9 6.2 6.7-23.3 4.4-36 6.4-.8-2.3 2.3-4.5 17.7-3.9-17-5-22.1 7.6-38.7 3.5-9.8.4-22.3-.9-18.3-2.5h3.8c-25.1-.9-76.4-.3-80.2 5.3-.3-.8 3.3-6.8 4.8-7.9l-44.9 18.8c3.8-4.5-9.5-15.1 6.7-18.5l6.4 7.9 12.9-10.9c-5.7 2.6-12.3 3.5-18.6 2.4.6-.2 1.2-.2 1.8-.3-8.6-1.2-17.4-1.1-26 .2 4.1.8 10.1 7 4.5 7.4-15.1-5.3-10.7-3-28.7-7.4 4.8 1.5-1.8 8.5-11 8.2 1.5-1.1-.8-7.4 2.7-8.2l-23 7c4.1-1.7-.5-6.1-5.4-8 2.4 1.5-20.7-.2-27.2.5l10.1 1.8c-27.1-1.2-26.9 10.3-53.9 9.8 3.3-1.5 8.2-9.4-5.6-10.4-6.4 3.8-27.8 18.2-51.7 21l-4.5-2.1-18.3 2.4c11.3-5.7 43.4-17.5 61-22.2-10.1-1.8-2.9-2.6-18-2.4-5.3-2.1 8.3-3 12.9-3.2l-35.6-1.5c1.5 4.4-27.1 4.4-25.7 8l38.4-4.5c1.5 4.4-22.2 12.6-47.4 11.6-6.4-1.8 4.8-7.9 4.2-9.4-3.3 1.5-23.9 2.9-26.2 1.8l10.6-2.3c-13.9-1.7-22.8 5.7-39.6 1.5-5.7-.3-17.2-5.7-18.3-3.2 9.4 5.1 11.2 20.7 4.8 24.5-2-.3-30.4-5-37.1-7.4-9.5-3.9 14.4-9.4 6.2-12.9l-6.8 3.3c-6.1-1.1 2.6-3.8-10.7-3.2-2.3 4.5-26.9-.5-6.2 3.8-13 1.2-13.8-.9-28.9-.8 4.8 2.9-13.8 9.8-26.6 11 .8-1.2-2.1-2.6-3.5-3.3h-1.5c-1.5-.5-1.2-.5-.5 0-25.3-.6-39.3-2.6-63.5-2.7-2.3-1.1-14.2-2.4-9.1-4.4-3.6.8-6.8 2.3-14.5 2.4-14.7-3.9 16.9-.6 5.7-5.3-.9 2.6-19.8 3.5-30.6 5.1 3.3 4.1 25.1.9 36-.8 0 5.6-18.9 11.3-44.8 13.8-20.6 1.4-8.9-3.6-12.4-2.9-36.4-1-33.5 8.4-59.9 6-1.6-.1-3.2-.3-5-.5-12.7-3.6-.5-7.1-3.3-9.7 3-.2 5.7-.3 8.3-.2v-2.1c-19.4-.2-41.9-.4-57.6-1.9-5.2 1.5-14.2 2.7-10 4.1l9.4-.5c8.6 2.9-17.7 3.9-5.9 5.3-12.7 2-26.8 5-44.6 3.3l-3.2-3.9c1.4 1.1 11.6 2.3 16.5 1.1-7.4 1.8-27.2-5.6-35.4-.3l12.4 2.9c-6.1.9-12.7 2.4-19.8 3.5h-9.4c-2.2 28.8 6.1 44.4-1.4 59.2 7.3 16.6 4.1-31.4 5.7-22 2.4-7.8 5.4 13.7 4.7 25.1-.2 11.6-9.3 19.7-9.3 48.9 0-2.9-.5-3.1-.5-6-.7 4.1-.5 8.1-.2 12.3.5 6.9 1.5 14.1-.3 22.4 4.4 7.5-.3 17.4 5.4 19.6l-1.3-26.7c1.5 15.2 8 29.3 4.7 54.4-1.1-2-2.6-9.4-3.4-14.5-.5 2.4-.7 4.9-.5 7.3-.2-.5-.2.5.2 2.1.5 4.1.5 8.1-.3 12.1-5.5-2.1-1.1-32.6-5.4-48.7-2.4 7.8 4.1 30.8-2.1 22.5 7.7 11.7-1 28.7 4.9 48.6l-3.4-1.3c1.1 5.1 1.8 10.3 2 15.3l-4.4-10.4c3.7 16-3.3 30.8-1.3 46.1 0-32.1 4.1-7.2 6.5-20.7 4.4 39.1-8.5 23.1-7.3 65.3 0-6.8 2.3-19.9 3.6-11.4-.7 8.5-2 19.6-3.7 24.8.7 29.3 3.4-4.6 5.5 8-4.1 9.9 1.6 14.5 2.9 27.4l-3.4.2c-2.3 33.4 7.2 9 4.4 39.1l-4.7-12.7 1.1 15.6-3.9-3.3c2.9 17.1 2.1 22.5 1 39.1 2.4-3.9 6.2 2.3 6.4 17.1-2.1 10.1-3.3-5.7-2.8 15.3-2.1-4.7-4.9-9.9-1.6-19.1-1.1-1-2.1-4.7-3.3-5.7-2.3 10.9-.7 27.4-.5 35 0-2.8.3-5.5.8-8.1l4.7 30.5c-1.3 4.7-2.3 1-3.3-2.8.3 6.2 2 10.4 2.3 19.6-2.8-2.3-5.7-1.8-7-14.7l3.1 29c-1.1 2-3.4 14.8-4.4 11.1-1.6 16.1 5.4 39.4 3.1 60.8.8 2.6 1.3 5.2 1.5 7.8-.7 20-4.1 37.8-.3 61.6l-5.1 13.5c1.1 18.6 6.4-18.2 8.1 12.7.4 5.6.3 8.8 0 10.7-1 5.6-4.6-.6-5.7 5.1 2.4 10.9 7.5 30 3.4 50-1-6.7-.2-11.9-.5-18.1l-2.8 15.3c-4.6-18.6-2.9-31.9-6.8-17.6 9.6 2.3.8 59.6 10.4 61.9l-2.1 10.1c.2-2.9-.5-3.4-.3-6.2-4.7 19.7 7 14.7 5.5 40.1 7.4.4 15.5.8 24.7 1.2l-3.4-3.2c5.4.2 11 .9 16.2 2.2 11.1-4.8-27.2-.3-17-5.6 12.8 6.5 68.2.2 76.8 7.6 14.8 0-4.3-3.7 10.5-3.7l3.9 2 3.7-2.6c9.7.5 14.7 2.9 15 4.6-3.1 0-6.2.3-9.3.6 7.7 1.4 19.2.8 28 .3v-1.4l-2.2-.2c.7 0 1.5-.1 2.2-.1 40.1-1.7 88.6.8 127-3.2l-2.9-1.5c30-2.8 24 1.7 56.9.5l-1.2.3c8-1.5 16.2-2.3 24.4-2-8.3 1.7 15.6 3.4 4.8 5.4 32.5-2.9 16.1-2.3 37.6-7.9l4.9 2.5c7.3-2.3 7.9-3.4 24.3-4-13.5 2.2 10.5 3.9-4.6 6.6 34.5 5.6 51.2-5.4 66.9 2.6 15.8-7-29.8-3.9-20.9-5.4-7.4-2.3 13-5.1 23.8-4.5 11 .2 18.7 8.8 46.4 8.8-2.8 0-2.9.5-5.7.5 10.4 1.7 20.3-2.3 32.9.5 7.1-4.2 16.5.3 18.6-5.1l-25.4 1.2c14.4-1.4 27.8-7.6 51.6-4.5-1.9 1.1-9 2.5-13.8 3.2 2.3.5 4.6.6 7 .5-.5.2.5.2 2-.2 3.9-.5 7.7-.5 11.4.3-2 5.3-30.9 1.1-46.2 5.1 7.4 2.3 29.2-3.9 21.3 2 11.1-7.3 27.2.9 46.1-4.6l-1.2 3.2c4.8-1.1 9.7-1.7 14.5-1.9l-9.9 4.2c15.2-3.6 29.2 3.1 43.8 1.2-30.5 0-6.8-3.9-19.6-6.2 37.1-4.2 22 8 62 7-6.5 0-18.9-2.2-10.8-3.4 8 .6 18.6 1.9 23.5 3.6 27.8-.6-4.3-3.2 7.6-5.3 9.4 3.9 13.8-1.5 26-2.8l.2 3.2c31.7 2.2 8.5-6.8 37.1-4.2l-12.1 4.5 14.8-1.1-3.1 3.7c16.2-2.8 21.3-2 37.1-.9-3.7-2.3 2.2-5.9 16.2-6 9.6 2-5.4 3.1 14.5 2.6-4.5 2-9.4 4.6-18.1 1.5-.9 1.1-4.5 2-5.4 3.1 10.4 2.2 26 .6 33.2.5-2.6 0-5.3-.3-7.7-.8l28.9-4.5c4.5 1.2.9 2.2-2.6 3.1 5.9-.3 9.9-1.9 18.6-2.2-2.2 2.6-1.7 5.4-13.9 6.6l27.5-2.9c1.9 1.1 14.1 3.2 10.5 4.2 15.3 1.5 37.4-5.1 57.7-2.9 2.5-.8 4.9-1.2 7.4-1.4 19 .6 35.9 3.9 58.4.3l12.8 4.8c17.6-1.1-17.3-6 12.1-7.7 20.9-1.5 7.7 4 15 5.4 10.4-2.3 28.4-7.1 47.5-3.2-6.3.9-11.3.2-17.2.5l14.5 2.6c-17.6 4.3-30.3 2.8-16.7 6.5 2.2-9.1 56.6-.8 58.8-9.9l9.6 2c-2.8-.2-3.2.5-5.9.3 18.7 4.5 13.9-6.6 38-5.3 8.3.8 14.2 2 8.5 3.1l18.7-2.2c4.5.2 4.3 1.2 1.2 1.5l26-.6-.2.3c4-1.4 13.3-3.6 17.8-4.5 7.3 1.4-3.7.9-1.9 2.2l15.8-2.2c6.5 2.3-6.6 4.6-17.6 4.3 14.7 9.1 13.1-2.3 44.8 3.1l-14.8 1.1c9.6 5.3 21.2 3.4 38 6.6-4-1.7-33.7-8.2-16.5-10.5 6.8.9 13.8.6 20.4-.8 0 3.2 9.1 2.5 20.4 2.3l-.8 4.3c12.2-1.2 11.3-3.4 18.4-5.4 13.6.5 16.4 3.9 19.6 6.6 20.7.7-11.5-4.8 7.5-6 1-.1 2.1-.1 3.4-.2 18.1 1.7 30.9 0 52.6-2.6 12.7 1.5-2.2 2.6 2.3 3.9l11.3-3.4c2.8.2 1.9 1.1 1.4 1.7 9.4-1.2.8-4.3 15.8-5.4 3.7-4.4 26.4 5.1 44.3 2.7-.2-6.1.1-11.4 1.7-20.6l-3.4 2.8 1-13.6-4.1 11c-2.4-26.1 5.8-4.9 3.8-33.9l-3-.1c1.1-11.2 6.1-15.1 2.5-23.7 1.8-10.9 4.2 18.5 4.8-6.9-1.4-4.3-2.5-13.9-3.1-21.3z"/></svg>