<svg viewBox="0 0 259.88 271.03" xmlns="http://www.w3.org/2000/svg"><path d="m176.96 270.95c-.9-.08-1.88-.15-2.78-.3-1.88-.15-3.68-.53-5.41-1.2-2.18-.98-3.61-2.55-3.68-4.96 0-.75.15-1.58.53-2.18.83-1.28 1.8-2.48 2.85-3.61.98-1.13 2.18-2.1 3.3-3.15l-2.1-.53c-1.88-.45-2.48-1.8-1.65-3.53.68-1.2 1.58-2.25 2.7-3.08.9-.75 1.8-1.43 2.85-2.25-.68-.23-1.2-.38-1.73-.53-2.85-.83-4.36-2.85-4.73-5.63-.98-5.93 3-11.64 8.94-12.77 2.25-.45 4.58-.23 6.76.75.08 0 .23.08.3.15 2.1 1.28 4.58 1.8 6.99 1.5h.45c2.48.15 4.88-.08 7.14-1.35 1.35-.83 3-1.13 4.51-1.73 1.65-.68 3.61-.45 5.11.53 3.08 1.73 5.18 4.81 5.71 8.26.45 2.55.15 5.18-.83 7.59-.38 1.05-.98 1.95-1.65 2.85-1.43 1.73-3.15 3.15-5.11 4.21-4.36 2.63-9.91.83-12.39-2.63-1.2-1.58-1.88-3.46-1.95-5.48-.15-2.48 0-4.96.38-7.36.15-.45.23-.98.38-1.43h-4.43v1.73c.08 1.58-.15 3.15-.6 4.66-.75 2.55-2.7 4.58-5.18 5.48-2.25.9-4.36 1.95-6.53 3-.75.38-1.35.9-1.95 1.5-.83.83-.53 1.8.6 2.1.68.15 1.35.3 2.03.3h3.76c2.03 0 4.06 0 6.08.08 1.35 0 2.7.23 3.98.6 3.3 1.05 5.41 4.36 4.88 7.81-.45 4.13-2.85 6.76-6.38 8.64-2.1 1.05-4.36 1.65-6.68 1.88-.23 0-.45.08-.68.15zm-6.16-11.64c-1.65 1.35-1.95 3.83-.6 5.48.15.23.3.38.53.53.75.68 1.65 1.28 2.63 1.73 2.18.98 4.58 1.43 6.99 1.43.6-.08 1.28 0 1.88-.15 2.93-.38 5.18-1.88 6.31-4.66s.75-6.16-3.46-7.21c-1.28-.3-2.55-.53-3.91-.6-.45-.08-.9-.08-1.35-.08-3.31 0-6.54 1.28-9.02 3.53zm28.47-29.37c-1.88.98-3.23 2.85-3.53 4.96-1.13 5.63 2.33 11.12 7.89 12.62.23.08.45.08.6.08 1.58-.15 2.78-1.43 2.78-3 .15-1.2.15-2.48.3-4.28 0-1.28-.15-2.55-.3-3.76-.53-2.85-2.4-5.18-4.96-6.46-.45-.23-.98-.38-1.5-.38-.53-.15-.91 0-1.28.22zm-25.92 1.2c-1.13 1.58-1.58 3.61-1.35 5.56.15 2.93 2.03 5.48 4.81 6.61 2.4 1.05 4.73-.15 5.33-2.7.15-.45.15-.98.23-1.58-.08-.68-.15-1.35-.38-2.1-.45-2.4-1.73-4.66-3.46-6.31-.6-.6-1.35-.9-2.18-.98-.08 0-.08 0-.15 0-1.12-.07-2.25.53-2.85 1.5zm-103.95 29.67c-2.1-.75-3.91-2.03-5.33-3.76-1.28-1.58-2.4-3.23-3.46-4.96-.08-.15-.15-.23-.3-.38-.08-.08-.23-.15-.3-.23-.68.53-1.28 1.13-1.88 1.73-1.2 1.35-2.63 2.4-4.28 3.08-1.43.68-2.78 1.58-4.28 1.8-7.59.98-14.2-.68-18.63-7.06-1.95-2.93-3.08-6.31-3.15-9.84-.08-1.95-.23-3.98.53-5.86 1.35-4.06 4.66-7.14 8.79-8.26.15 0 .23-.08.38-.08 0 0 .08 0 .08-.08-.68-.9-1.43-1.73-2.03-2.7-2.48-3.76-2.85-8.49-.9-12.54 1.2-2.7 3.46-4.36 6.01-5.48 2.1-.98 4.36-1.58 6.68-1.73 2.7-.23 5.41.45 7.74 1.73 1.35.75 2.33 1.88 2.18 3.53 0 .6-.15 1.13-.45 1.58-.75 1.13-1.58 2.1-2.55 3.08-.83.83-1.35.53-1.95-.38-.83-1.35-1.8-2.7-2.85-3.98-1.28-1.58-3.3-2.25-5.18-1.73-1.05.23-1.95.83-2.55 1.73-.98 1.35-1.65 2.85-1.88 4.51-.23 1.05-.08 2.1.45 3 .9 1.58 1.88 3.15 2.85 4.73.6.9 1.5 1.58 2.55 1.88 2.03.68 4.13 1.28 6.16 1.95.6.15 1.13.38 1.73.6 3 .98 5.03 3.15 6.68 5.71 1.2 1.8 2.03 3.83 3 5.78.23.38.45.75.68 1.28.83-1.05 1.65-2.03 2.4-3 1.35-1.95 2.78-3.91 3.98-5.93 1.05-1.65 1.88-3.38 2.85-5.11.53-.98 1.13-1.88 1.8-2.7 1.95-2.03 4.66-2.03 6.68-.08 1.13 1.05 1.65 2.18 1.05 3.76-.3.9-.53 1.8-.9 2.63-.6 1.28-1.5 1.5-2.7.68-.53-.38-1.05-.68-1.65-.98s-1.28-.08-1.58.53c-2.7 4.06-5.48 8.19-8.19 12.24-.38.53-.68 1.05-.9 1.65-.45 1.13-.38 2.4.23 3.53 1.28 2.33 3 4.36 4.96 6.16 1.2.9 2.78.98 4.06.23.83-.6 1.65-1.28 2.33-2.03.75-.75 1.43-1.58 2.18-2.4.3-.3.6-.6.9-.83.45-.3.9-.83 1.43-.45.45.45.83.98 1.05 1.58.08.08-.08.3-.15.38-2.03 3.46-4.58 6.61-7.66 9.16-1.05.83-2.18 1.5-3.3 2.1-.53.3-1.13.45-1.8.45-.56.08-1.08.01-1.61-.22zm-29.74-30.72c-2.85 2.18-4.58 5.48-4.58 9.09 0 .45.08.9.15 1.35.75 3.61 2.63 6.83 5.33 9.31 1.65 1.65 3.83 2.63 6.16 2.7 1.43 0 2.78-.23 4.21-.23 1.95-.15 3.76-1.05 4.96-2.55.3-.3.68-.68.9-.98 1.35-1.58 1.43-1.05.38-3.08-.68-1.2-1.28-2.4-1.8-3.68-1.05-3.23-3-6.16-5.56-8.49-2.03-1.95-4.51-3.3-7.21-3.91-.38-.08-.75-.15-1.13-.15-.69.02-1.29.25-1.81.62zm64.14 22.38c-.53-.98-1.13-1.88-1.58-2.93-4.51-9.46-9.01-18.93-12.47-28.84 0-.08-.08-.15-.08-.23-.45-1.43-1.28-2.78-2.4-3.76-.83-.75-1.58-1.65-2.33-2.55-.23-.3-.45-.68-.68-1.05-.45-.9-.3-1.28.68-1.58 1.88-.53 3.76-.98 5.56-1.43.45-.23 1.05.08 1.2.53v.08c1.2 2.7 2.55 5.33 3.68 8.11 2.18 5.33 4.21 10.67 6.38 15.92.83 2.1 1.8 4.13 2.7 6.16.23.45.53.9.9 1.58.38-.9.68-1.58.9-2.33 2.25-6.23 4.43-12.54 6.61-18.78.98-2.78 2.1-5.48 3.15-8.19.23-.53.53-1.13.83-1.65.38.45.75.98 1.05 1.5 1.43 3 3 6.01 4.28 9.09 1.88 4.51 3.61 9.01 5.48 13.52.83 2.1 1.8 4.13 2.7 6.16h.23c.3-.83.75-1.65.98-2.48 1.65-5.48 3.3-11.04 4.81-16.52.53-1.8.38-3.68-.38-5.41-.23-.45-.38-.98-.6-1.58 1.28-.3 2.63-.53 3.91-.6 4.88-.23 9.76-.3 14.57-.45 16-.53 32-.15 47.99-.15 12.84 0 25.69.08 38.53 0 5.63 0 11.19-.3 16.82-.45.45 0 .9-.08.98.45.15.45-.08 1.05-.53 1.28-2.7 1.73-5.71 2.25-8.86 2.48-8.34.6-16.67.53-24.94.53-2.78 0-5.56 0-8.34 0-21.63.08-43.26.15-64.82.23-2.85 0-5.71 0-8.49-.08-.68 0-.98.15-1.2.9-1.8 6.53-3.68 13.14-5.56 19.68-.83 2.93-1.8 5.78-2.85 8.71-.45 1.28-1.13 2.48-1.95 3.53-.83 1.2-1.73 1.05-2.25-.23-2.7-6.53-6.23-12.69-8.49-19.38-.75-2.18-1.43-4.28-2.18-6.46-.38-1.05-.98-2.03-1.43-3l-.23.08c-.3.98-.6 1.95-.98 2.93-1.13 3.23-2.33 6.46-3.53 9.69-1.88 5.33-3.76 10.74-5.63 16.07-.23.53-.6.98-1.05 1.35-.15.15-.3.15-.45.23-.26-.23-.49-.45-.64-.68zm40.33-.07c-.53-.08-1.13-.15-1.65-.3-2.1-.45-2.93-2.03-2.7-4.21.23-1.35.83-2.55 1.88-3.46 1.58-1.5 3.46-2.63 5.48-3.38 1.43-.53 2.93-1.13 4.36-1.73.23-.08.53-.23.75-.38 2.03-1.2 2.4-2.03 1.5-4.36-1.05-2.78-4.21-4.13-6.99-3.08-.15.08-.3.15-.45.23-.3.15-.6.38-.83.6l1.13.6c.9.45.98 1.13.15 1.73-.9.68-1.95.98-3.08 1.05-1.5.08-2.93-.9-3.46-2.33-.3-.75-.08-1.58.45-2.1.53-.6 1.2-1.05 1.88-1.5 2.63-1.43 5.48-2.18 8.41-2.25 3 .08 5.86 1.05 8.19 2.93 1.05.75 1.58 1.95 1.5 3.23-.08 3.61 0 7.14 0 10.74 0 1.73.68 3.08 2.4 3.76.68.23 1.35.53 2.03.75.98.3 1.2 1.13.45 1.8-1.2 1.28-2.93 1.95-4.73 1.65-2.1-.15-4.06-1.13-5.63-2.55-.9-.9-1.43-.9-2.4-.15-.6.45-1.05.9-1.65 1.35-1.58 1.05-3.53 1.65-5.48 1.58-.45-.15-.98-.15-1.51-.22zm2.78-7.44c-.15.15-.3.3-.38.45-.68 1.05-.45 2.55.68 3.23.3.15.6.3.9.38.9.08 1.88-.15 2.63-.6 2.48-1.5 3.61-4.28 3.08-7.51-2.55 1.05-4.95 2.18-6.91 4.05zm100.5 6.69c-1.35-.08-2.63-.38-3.83-.98-1.73-.83-2.63-2.78-2.18-4.66.38-1.58 1.58-2.33 2.93-2.78.15-.08.45.15.6.38.98 1.13 1.88 2.25 2.85 3.3.83.83 1.95 1.43 3.15 1.65 1.73.45 3.53-.68 3.91-2.4 0-.15.08-.3.08-.45.45-2.93-1.58-5.63-4.51-6.01-.15 0-.3 0-.45-.08-1.58-.08-3.08-.08-4.66-.23-2.63-.23-3.98-1.58-4.43-4.21-.53-2.55.53-5.18 2.7-6.53 2.18-1.5 4.66-2.48 7.29-2.7 1.43-.23 2.85-.23 4.28-.15s2.55 1.35 2.48 2.78c0 .15 0 .3-.08.45-.23 1.13-2.03 2.55-3.15 2.4-.45-.15-.9-.38-1.2-.83s-.6-.9-.83-1.43c-.83-1.35-2.1-1.5-3.46-1.35-1.28.08-2.4.98-2.78 2.18-.68 1.95-.08 3.3 1.88 3.91 1.35.3 2.63.53 3.98.68 1.2.23 2.48.3 3.68.6 2.25.53 3.53 2.1 4.06 4.21.08.15.08.3.15.45v2.18c-.15.68-.38 1.43-.53 2.1-.38 1.35-1.13 2.63-2.18 3.53-2.63 2.33-5.63 3.83-9.16 3.83-.21.16-.44.16-.59.16zm-31.32-2.48c0-3.61.08-7.14 0-10.74 0-1.65-.3-3.3-.45-4.96-.23-1.43-1.05-2.7-2.25-3.38-.23-.15-.38-.3-.6-.45-.53-.53-.45-.98.15-1.35.98-.6 1.95-1.13 2.93-1.73.6-.38 1.43-.3 1.95.23.75.68 1.43 1.5 2.18 2.25.75.83.68.83 1.65.3 1.65-.9 3.3-1.73 4.96-2.63 2.78-1.5 6.38.08 7.66 2.48.83 1.65 1.35 3.53 1.5 5.41.3 2.55-.15 5.11-.45 7.66-.15 1.2-.23 2.4-.38 3.61.08 0 .08.08.15.08.3-.23.68-.45.98-.68.83-.6 1.58-1.2 2.4-1.73.3-.3.83-.23 1.05.15l.08.08c.3.38.38.68-.15.98-2.03 1.43-4.06 2.85-6.08 4.21-.45.3-.98.53-1.43.68-1.05.38-1.8-.23-1.73-1.35.15-1.5.3-3.08.38-4.58.08-3.46.08-6.91-.98-10.29-.3-.98-.75-1.88-1.28-2.63-.68-1.05-2.03-1.43-3.15-.9-.83.38-1.65.83-2.48 1.28-.68.45-1.05 1.2-.98 2.03-.08 1.35-.08 2.63-.08 3.98.08 2.93.23 5.86-.68 8.64-.38 1.13-.9 2.18-1.58 3.08-.75 1.05-1.95 1.58-3.23 1.58.01-.41-.06-.86-.06-1.31zm-62.57-36.73c-.3-.08-.6-.15-.9-.23-.6-.08-.98-.68-.83-1.2 0-.08 0-.15.08-.23 0-.08 0-.15.08-.23.75-1.13.3-2.1-.3-3.15-3.23-5.86-8.19-9.01-14.72-9.84-5.03-.6-9.91.23-14.65 1.65-4.36 1.28-8.56 2.85-12.32 5.56-1.43 1.05-3 1.88-4.66 2.55-.38.15-.75.08-1.05-.08-.38-.23-.53-.68-.3-1.05.68-1.5 1.35-3 2.18-4.51 2.55-3.98 4.96-7.96 7.81-11.72 3.68-4.96 7.14-9.99 10.44-15.1.9-1.35 1.8-2.63 2.78-4.06-.68-.23-1.28-.53-1.95-.68-4.81-1.2-9.54-2.4-14.35-3.61-.75-.15-1.58.15-2.1.75-.38.38-.75.83-1.2 1.2-.3.23-.68.38-.98.38-.38-.08-.83-.98-.75-1.43.15-.53.38-1.05.6-1.58.75-1.35 1.58-2.7 2.33-4.06.83-1.5 2.55-2.18 4.13-1.65 2.93.68 5.78 1.5 8.64 2.33 1.73.45 3.46 1.13 5.26 1.5 1.65.23 3.3.38 4.96.38.38 0 .68-.23.98-.53.75-.9 1.43-1.88 2.18-2.78.23-.3.45-.68.68-.98.38-.53 1.13-.6 1.65-.23.53.23.83.9.53 1.43 0 0 0 .08-.08.08-.45.98-.98 1.8-1.58 2.63-1.5 1.95-3.15 3.76-4.66 5.71-1.73 2.33-3.46 4.66-5.11 7.06-3.3 4.88-6.53 9.84-9.76 14.72-.83 1.28-1.58 2.7-2.33 3.98.08.08.15.08.15.15.23-.08.45-.15.68-.23 5.41-2.03 11.12-3.3 16.9-3.68 5.03-.3 9.76.9 14.5 2.55 3.15 1.05 5.56 3.15 7.81 5.48.75.75.83 1.8.9 2.78.15 3.15-.15 6.31-.98 9.31-.08.38-.3.6-.6.6.06.06-.01.06-.09.06zm49.35-17.8c-.9-.83-1.65-1.73-2.33-2.63-1.73-2.55-2.7-5.48-2.93-8.49-.45-3.38-.23-6.76.6-10.06 1.5-5.56 5.48-8.94 11.27-9.46.15 0 .38-.08.53-.08 1.13-.15 2.33 0 3.38.45 1.73.83 3.61 1.58 5.33 2.33.23.08.45.15.75.3-.08-3.68-.15-7.29-.3-10.97-.08-2.1-.38-4.21-.53-6.23-.08-.75-.45-1.5-1.05-2.03-.9-.75-1.8-1.43-2.63-2.18-.45-.38-.9-.75-1.28-1.2-.53-.6-.45-.9.3-1.13 1.28-.45 2.55-.83 3.83-1.13 2.25-.6 4.51-.98 6.83-.98 1.58 0 2.33.68 2.25 2.25-.53 15.02-.08 30.04-.23 44.99 0 .45.08.83.15 1.28.08.38.38.53.75.23.75-.53 1.58-.98 2.4-1.43.6-.38 1.43-.23 1.88.3.45.68.38 1.58-.23 2.1-.23.15-.38.3-.6.45-2.4 1.43-4.81 2.85-7.21 4.28-.45.3-.9.6-1.43.83-.75.45-1.35.3-1.73-.53-.38-.9-.6-1.8-.75-2.7-.15-.83-.15-1.73-.23-2.78-.98.75-1.8 1.43-2.63 2.1-1.43 1.2-3 2.33-4.58 3.3-1.28.68-2.63 1.13-4.13 1.13-1.99-.06-3.95-.88-5.45-2.31zm7.51-26.96c-2.63.75-4.73 2.85-5.33 5.56-1.65 5.26-.6 10.97 2.7 15.4.68.98 1.58 1.73 2.63 2.25 1.58.75 3.15.75 4.58-.38 1.05-.9 2.1-1.8 3-2.85.98-1.05 1.43-2.4 1.35-3.83-.08-1.28 0-2.63 0-3.91 0-1.35 0-2.7 0-4.06.08-1.43-.38-2.85-1.28-3.91-.98-1.2-2.18-2.25-3.23-3.3-.68-.75-1.73-1.2-2.78-1.13-.51-.14-1.11.01-1.64.16zm-33.8 28.54c-.23-1.13-.38-2.25-.45-3.38-.08-3.38 0-6.68 0-10.06h.15c0-3.23 0-6.38 0-9.61 0-.75-.08-1.5-.15-2.18-.3-1.65-1.5-3-3.08-3.46-.53-.15-1.05-.45-1.5-.75-.3-.3-.53-.68-.53-1.13.08-.3.53-.6.9-.68 1.13-.23 2.33-.23 3.46-.53 2.25-.45 4.43-1.05 6.68-1.5 1.65-.38 2.48.38 2.33 2.03 0 .45-.15.98-.15 1.43-.08.3 0 .53.08.83.15.45.45.68.9.3 1.35-.98 2.78-1.95 4.21-2.85 1.13-.68 2.25-1.35 3.38-1.88.53-.23 1.13-.3 1.65-.23 1.35.38 2.7.83 4.06 1.43.98.38.98.68.53 1.58-.75 1.43-1.58 2.78-2.4 4.13-.23.45-.75.75-1.28.53 0 0-.08 0-.08-.08-.68-.3-1.28-.68-1.95-1.05-.68-.45-1.43-.83-2.18-1.13-.38-.15-.75-.08-1.13.08-1.73 1.13-3.46 2.33-5.18 3.61-.23.23-.3.53-.3.83v19.83c0 .45-.15.9-.45 1.2-1.73 1.65-3.98 2.85-6.31 3.38-.08 0-.23.08-.3.08-.53-.02-.91-.4-.91-.77zm66.32.6c-2.03 0-3.98-.53-5.78-1.58-2.1-1.13-3.15-3.61-2.48-5.86.23-1.05.9-1.95 1.8-2.55.75-.53 1.65-.83 2.4-1.28.83 1.05 1.5 1.95 2.25 2.85 1.05 1.35 2.4 2.48 3.91 3.3.98.53 2.1.9 3.23.98 2.33.15 4.28-1.65 4.66-4.06.45-2.85-2.4-7.44-6.38-7.51-1.88 0-3.83-.15-5.71-.3-.9-.08-1.8-.23-2.7-.38-2.7-.68-3.83-2.7-4.28-5.26-.6-3.46.68-6.16 3.46-8.19 2.48-1.73 5.33-2.93 8.34-3.38 2.25-.53 4.58-.68 6.91-.53 1.13.08 2.25.6 3 1.5 1.05 1.2 1.05 3 0 4.13-.9.9-1.95 1.58-3.23 1.88-.53.15-1.05 0-1.43-.38s-.68-.83-.98-1.28-.6-.98-.9-1.5c-.53-.9-1.5-1.43-2.48-1.43-1.13 0-2.25.15-3.3.38-2.25.68-2.85 3.23-2.7 4.66.15 1.05.9 1.95 1.88 2.4 1.35.6 2.85.98 4.36 1.05 2.25.23 4.51.53 6.68.9 4.66.83 6.23 5.03 5.93 8.41-.23 3.98-2.4 7.59-5.86 9.54-3.15 1.95-6.38 3.3-10.06 3.3-.16.19-.31.19-.54.19zm-206.55-1.28c-1.8-3.3-3.61-6.61-5.18-9.99-3.23-6.76-6.46-13.59-9.46-20.5-1.65-3.68-2.93-7.44-4.36-11.19-.45-1.43-1.35-2.7-2.55-3.68-.6-.45-1.13-.98-1.65-1.58-1.28-1.35-2.93-2.25-4.73-2.63-2.1-.53-4.28-.45-6.31.23-.45.15-.9.15-1.43.15-.3-.08-.53-.23-.68-.53 0-.3.08-.6.3-.75.23-.15.53-.3.83-.38 5.56-1.95 11.34-3.3 17.2-3.83 1.05-.15 2.03.38 2.55 1.2.68.9 1.2 1.88 1.58 2.85 2.18 6.83 5.56 13.22 8.04 19.9 2.1 5.71 4.51 11.19 7.14 16.67.38.75.75 1.43 1.2 2.18.08-.15.15-.3.23-.45 3.68-9.76 7.29-19.53 10.97-29.37.9-2.33 1.58-4.73 2.48-7.06.3-.75.68-1.5 1.2-2.18.6-.83 1.28-.75 1.8.15 1.28 2.33 2.63 4.66 3.68 7.14 3.23 7.44 6.38 14.95 9.61 22.38 1.2 2.7 2.55 5.41 3.91 8.04.15.23.3.53.45.75.53-1.2.98-2.33 1.43-3.46 2.63-6.31 4.51-12.92 6.46-19.45.38-1.2.68-2.4 1.05-3.61.68-1.95.9-4.06.68-6.08-.38-2.55-.68-5.11-1.05-7.74-.08-.45-.23-.9-.38-1.28-.6-1.88-2.25-3.23-4.21-3.46-.6-.15-1.2-.38-1.65-.75-.38-.23-.45-.68-.23-1.05.15-.15.3-.3.53-.3.38-.15.83-.15 1.2-.15 5.78 1.13 11.34.3 16.9-1.58.83-.3 1.58-.68 2.4-.9.3-.08.68-.08.98.15.23.3.23.68.08.98-.3.53-.75.9-1.28 1.13-2.25.68-3.91 2.55-4.36 4.81-.53 2.25-1.13 4.51-1.73 6.68-2.63 9.46-5.41 18.93-8.56 28.32-1.65 4.88-3.3 9.84-5.03 14.72-.6 1.65-1.43 3.23-2.25 4.73-.45.98-1.5 1.5-2.55 1.35-.45-.08-.83-.3-1.2-.68-.3-.38-.53-.75-.68-1.13-2.33-4.88-4.66-9.84-7.06-14.72-2.48-5.18-4.51-10.52-6.23-16-.68-1.8-1.43-3.53-2.33-5.18-.15-.3-.3-.53-.53-.75-.38.9-.68 1.58-.98 2.33-3.53 9.76-7.06 19.53-10.67 29.29-.75 2.03-1.73 3.91-2.7 5.86-.15.3-.3.53-.53.68-.3.38-.75.6-1.28.68-.38.02-.68-.28-1.06-.96zm55.36-.37c-.08-.53-.08-1.13-.08-1.65-.08-6.46-.08-12.92-.15-19.38-.08-1.13-.15-2.25-.38-3.38-.15-1.05-.75-1.95-1.65-2.48-.83-.53-1.65-.9-2.48-1.43-.45-.23-.9-.53-1.28-.83s-.6-.83-.45-1.28c.08-.45.53-.83.98-.9 3.61-.83 7.14-1.73 10.74-2.55.98-.38 2.03.15 2.4 1.13.08.15.08.38.08.53.08.3.08.6.08.9-.08 4.81-.08 9.61-.15 14.42v9.84.9c.68-.3 1.28-.6 1.8-.9.75-.38 1.43-.75 2.1-1.13.6-.3 1.35-.15 1.65.45.38.53.23 1.2-.23 1.58-.3.3-.68.6-1.05.9-3.08 1.95-6.16 3.91-9.31 5.86-.3.15-.53.3-.83.45-.23.08-.38.15-.6.15-.67-.08-1.19-.6-1.19-1.2zm76.01-.23c-1.65-.08-3.23-.38-4.73-.9-1.35-.53-2.63-1.35-3.76-2.4-1.2-1.13-1.95-1.2-3.3-.15-.53.38-1.05.83-1.5 1.2-1.43-.68-2.78-1.28-4.13-1.88 2.4-.23 4.58-1.65 5.86-3.76 1.35-2.1 1.43-4.36 1.2-6.83-.23.08-.38.15-.53.15-2.85 1.05-5.48 2.55-7.96 4.36-.23.15-.45.38-.68.6-1.65 1.35-1.28 3.23-.38 4.43.08.08.08.15.08.08-2.93-.6-6.01-1.2-9.09-1.88.08-.23.15-.38.23-.6.83-1.58 1.95-2.85 3.38-3.91 1.8-1.28 3.83-2.33 5.93-3.08 2.03-.75 3.98-1.5 6.01-2.25.53-.23 1.13-.53 1.58-.83 1.8-1.13 2.18-2.18 1.65-4.21-.83-2.85-3.23-4.96-6.08-5.41-1.5-.15-3.08.15-4.43.83-.23.15-.45.3-.6.53.23.23.38.38.68.6.38.23.75.3 1.05.6.45.23.6.83.38 1.28-.08.15-.23.3-.38.38-1.58 1.2-3.53 1.8-5.48 1.58-1.65-.23-3.08-1.35-3.68-2.93-.38-.9-.23-1.95.45-2.63.68-.75 1.43-1.35 2.25-1.8 3.83-2.1 8.11-3.15 12.47-3.08 3.76.15 7.44 1.5 10.44 3.83 1.28.9 2.03 2.4 1.88 3.98-.08 4.66-.08 9.24 0 13.9 0 .75.15 1.5.45 2.25.3 1.05 1.13 1.88 2.18 2.25 1.13.38 2.25.83 3.38 1.2 1.28.45 1.58 1.43.6 2.33-1.28 1.35-3.08 2.18-4.96 2.25-.16-.08-.31-.08-.46-.08zm-74.28-39.88c-.38-.3-.45-.83-.23-1.2.9-1.95 1.8-3.91 2.63-5.86.38-.98 1.2-1.65 2.25-1.88.98-.15 1.95-.38 2.93-.53v.08h.53c1.65.23 2.25 1.05 1.8 2.7-.15.53-.38 1.05-.6 1.5-1.35 2.25-3.3 4.06-5.63 5.26-.45.23-.98.38-1.43.53-.23.08-.45.15-.68.15-.6-.08-1.12-.38-1.57-.75zm-5.11-51.05c-8.64-32.9 7.66-63.39 31.32-77.06v35c1.2-.6 2.33-1.05 3.38-1.65.15-.08.23-.38.23-.6 0-1.65 0-3.3 0-5.03 0-8.56 0-17.12 0-25.76 0-.53-.15-1.05-.45-1.5-.45-.6-.83-1.2-1.28-1.88 2.55-2.25 5.03-4.43 7.51-6.61l-.08-.08-38.82 8.86c0-.08 0-.08-.08-.15.15-.15.3-.23.53-.38 13.29-8.94 26.66-17.95 39.96-26.96.3-.23.75-.3 1.05-.08 7.21 2.48 14.42 4.96 21.56 7.36.38.15.68.38.98.6 5.11 5.11 10.21 10.29 15.25 15.4.15.23.3.38.45.6l.23-.15v-5.48c28.77 5.93 53.93 32.22 54.38 66.77.45 34.32-24.34 63.77-58.21 69.18-3.68.6-7.44.9-11.12.9-31.33.15-58.75-21.03-66.79-51.3zm11.87-48.97c-.23.45-.38.9-.38 1.43 0 19.98.08 39.88.08 59.86 0 .45.15.83.3 1.2 6.76 11.94 17.2 21.33 29.74 26.81.15.08.38.15.6.23-4.43-3.15-8.11-6.99-9.91-12.47 2.18 1.5 4.66 2.48 7.29 2.93-1.35-1.8-4.06-10.59-4.51-12.54.08.15.23.23.3.3 3.83 5.18 8.26 9.84 13.14 14.05 3.3 2.93 6.99 5.41 10.97 7.36.23.08.38.15.6.23-2.03-2.25-4.06-4.43-4.96-7.51.3.15.53.23.68.3 4.36 2.18 8.86 4.06 13.52 5.41.3.08.68.08.98 0 4.96-1.28 9.84-2.85 14.57-4.81.23-.08.38-.15.6-.23l.15.15c-1.88 2.18-3.76 4.43-5.71 6.76 9.99-5.03 17.73-12.54 24.86-20.81-.83 3.15-1.58 6.38-2.4 9.54 1.88-1.13 3.91-2.25 5.86-3.46-1.88 3.38-4.13 6.53-6.61 9.46.3-.08.53-.23.83-.45 8.26-5.63 15.17-13.07 19.98-21.86.3-.53.53-1.2.45-1.88 0-19.08 0-38.16.08-57.23 0-.83-.23-1.73-.68-2.48-.75-1.13-1.43-2.33-2.1-3.53-.08 0-.08 0-.15.08v.75 53.7c0 2.03-.3 4.06-.9 6.08-1.95 6.31-5.56 11.27-11.42 14.42-.23.15-.45.23-.75.38.08-.23.15-.3.15-.38.83-2.25 1.8-4.43 2.4-6.68.98-3.61 1.05-7.29 1.05-10.97 0-.45-.15-.9-.3-1.28-2.55-4.81-5.26-9.46-7.74-14.35-5.03-9.76-8.49-19.98-8.86-31.1 0-.08 0-.15-.08-.23-5.71 1.73-11.34 3.53-17.05 5.11s-11.49 2.85-17.35 4.28c1.13.75 2.25 1.5 3.38 2.18.68.45 1.5.23 1.95-.45 0 0 0-.08.08-.08.3-.38.53-.83.68-1.28.23-.53.3-.98.53-1.65.15.23.23.38.3.6.68 1.5 1.05 3.08 1.13 4.66.08 2.33-.15 4.58-.75 6.83-.38 1.88-.9 3.76-1.28 5.71-.3.9.15 1.8.98 2.18 1.05.53 2.18 1.05 3.23 1.65.98.68 2.33.53 3.15-.3.53-.38.98-.9 1.5-1.28 1.43-1.05 2.7-.6 3.23 1.2-.98-.23-1.88-.38-2.7.6.38.15.83.3 1.28.38 1.28.23 2.55.3 3.83.53 2.48.53 4.28 1.8 5.03 4.43.6 2.1.75 4.28.6 6.46 0 .38-.08.75-.08 1.13l.23.08c.45-.9.83-1.8 1.2-2.78.83-2.78.83-5.71 0-8.49-.83-2.85-.15-5.93 1.8-8.19 1.13-1.43 2.33-2.85 3.46-4.28.53-.6 1.05-1.13 1.5-1.65.53 1.5.98 2.93 1.5 4.36.23.38.15.83-.15 1.13-2.18 2.63-3.46 5.78-3.83 9.16-.08.68-.15 1.35-.15 2.03-.08.68-.08 1.35-.15 2.03 1.28-4.28 2.7-8.56 5.33-12.24.75 1.8 1.43 3.46 2.1 5.18.08.15 0 .38-.08.53-1.43 2.55-1.43 5.26-.83 8.04.45 1.8.98 3.61 1.43 5.48.53 2.48.38 4.73-2.03 6.38-1.43.98-2.1 2.78-1.65 4.51.38 1.8.15 3.68-.83 5.33-.83 1.5-1.88 2.78-3.15 3.91-.15.15-.38.23-.53.38.08.08.15.15.23.23.38-.3.83-.53 1.2-.83 1.8-1.5 3.3-3.38 4.28-5.56.23-.53.68-.98 1.13-1.28.6-.3 1.05-.83 1.28-1.5.15-.53.38-1.05.53-1.5.45-1.43.83-2.93 1.28-4.36.23-.45.45-.98.68-1.43.53 1.35.75 2.7 1.28 3.98.9 2.1.53 3.98-.3 6.01-1.88 4.28-4.13 8.04-8.41 10.37-3.83 2.03-7.44 4.58-11.19 6.76-1.43.68-2.85 1.28-4.36 1.73-.75.3-1.5.38-2.25.68-2.18.83-4.36 1.28-6.76.6-1.8-.53-3.61-1.28-5.56-1.28-.23 0-.38-.08-.6-.15-2.4-.75-4.66-1.8-6.68-3.15-3.91-2.4-7.74-4.88-11.57-7.36-.15-.15-.3-.3-.45-.45-2.78-3.08-4.36-6.76-5.63-10.67-.08-.15-.08-.3 0-.45.6-2.18 1.2-4.43 1.88-6.76.15.23.38.53.45.83.38.9.68 1.88.98 2.78.45 1.35.83 2.78 1.28 4.13.15.38.6.68.9.98.38.3.75.68 1.13 1.05.3.53.6.98.83 1.58.98 1.8 2.25 3.3 3.91 4.58.15.08.3.23.53.3l.15-.15c-.23-.15-.38-.3-.6-.45-.15-.15-.3-.3-.53-.53-2.7-3.08-3.98-6.61-3.23-10.74.08-.3-.08-.68-.38-.75-1.95-1.13-3.23-3.15-3.38-5.41-.08-2.1.23-4.21.9-6.23.75-2.55 1.2-5.18.53-7.89-.23-.83-.75-1.58-.68-2.33.08-.75.75-1.43 1.05-2.18.38-.98.68-1.95 1.05-3.08 2.18 3.68 3.83 7.66 5.03 11.79.08-1.8-.08-3.68-.53-5.48-.68-2.55-1.88-5.03-3.53-7.14-.15-.15-.3-.45-.23-.68.6-1.5 1.2-3 1.88-4.51 1.8 1.43 3.38 3.08 4.73 4.96 1.5 2.1 2.18 4.66 2.03 7.21-.08 1.58-.38 3.08-.45 4.66-.3 2.25-.08 4.58.68 6.76.23.53.53 1.05.83 1.58.15-2.03.08-4.06.45-6.01.53-3.3 2.25-5.56 5.63-6.31.3-.08.68-.15 1.05-.23-1.05-.83-1.65-2.18-1.43-3.53.23-1.8.68-3.61 1.5-5.18.98-2.4.38-3.46-2.18-4.13-2.48-.6-4.96-1.43-7.36-2.18-.53-.23-.98-.45-1.43-.9-1.13-.9-1.65-2.33-1.5-3.76-1.5.23-2.93.45-4.36.75-.3.08-.53.23-.75.53-.98 1.8-1.95 3.53-2.78 5.41-3.3 7.29-5.63 14.95-6.83 22.76-.83 4.66-1.05 9.46-.53 14.2.08.38.08.75.15 1.2-.98-.15-1.8-.68-2.25-1.58-.68-.98-1.2-2.1-1.88-3.08-.53-.9-1.13-1.8-1.8-2.85-4.06 7.14-3.23 13.67 1.65 19.98-1.73-.23-3.38-.9-4.88-1.8-4.66-2.93-8.56-6.83-11.49-11.57-.3-.45-.45-1.05-.45-1.65 0-21.11 0-42.21 0-63.32v-.75l-.15-.08c-.7 1.14-1.53 2.49-2.28 3.84zm38.46 51.53c-.08.45 0 .83 0 1.28.23.98.45 1.95.83 2.93.53 1.28.98 2.55 1.28 3.91.38 1.5.9 2.93 1.5 4.36.45 1.13 1.43 2.03 2.63 2.33.15 0 .23.08.3.23.53 1.13 1.05 2.33 1.5 3.53.53 1.43.83 2.85 1.35 4.28.38.98 1.13 1.8 2.18 2.25.53.23 1.05.6 1.5.98.6.53 1.2 1.2 1.8 1.8.23.23.53.38.83.53-.45-1.43-1.28-2.78-2.4-3.83-.98-.9-1.65-2.03-2.1-3.3-.75-2.03-1.58-4.06-2.33-6.08-.23-.83-.83-1.43-1.58-1.8-.6-.23-1.13-.6-1.65-1.13-.98-1.2-1.58-2.63-1.73-4.13-.23-1.58-.53-3.15-1.58-4.43-.98-1.05-1.73-2.25-2.1-3.61zm39.35 2.7c-1.05 1.2-1.65 2.7-1.88 4.28-.08 1.5-.6 2.93-1.35 4.13-.45.68-1.05 1.28-1.8 1.65-.83.3-1.5.9-1.8 1.73-.23.53-.3 1.13-.53 1.65-.6 1.43-1.2 2.93-1.8 4.36-.45 1.35-1.28 2.55-2.25 3.61-1.05 1.05-1.88 2.25-2.4 3.61l.15.15c.3-.23.68-.45.98-.68.53-.53 1.05-1.13 1.65-1.65.3-.38.68-.6 1.13-.83 1.13-.38 2.1-1.28 2.55-2.4.38-.83.75-1.73.9-2.63.3-1.73.9-3.3 1.73-4.88.08-.23.3-.38.53-.53.83-.23 1.58-.75 2.03-1.43.53-.83.98-1.65 1.28-2.55.83-2.7 1.43-5.41 2.55-8.04.38-.75.45-1.65.23-2.48-.62 1.05-1.22 2.03-1.9 2.93zm-19.75-.83c-.15 1.28-.08 2.63-.15 3.98-.08.68-.15 1.35-.3 1.95-.23 1.35-.6 2.7-.75 4.06-.23 1.35.23 2.7 1.13 3.68.38.38.6.9.6 1.5.08 1.2-.08 2.4-.6 3.53-.23.6-.38 1.28-.45 1.95-.15.9.15 1.8.83 2.4.08-1.73.68-3.46 1.65-4.88.15-.15.15-.38.23-.6.08-.9.08-1.88.15-2.78.08-.68-.15-1.28-.68-1.73-.75-.68-1.13-1.58-1.2-2.55-.08-1.5.23-3 .83-4.36.45-1.05.6-2.18.45-3.3-.3-1.5-.6-3-.98-4.58-.08 0-.08-.08-.15-.08-.23.61-.46 1.21-.61 1.81zm-5.56-9.38c-1.35.6-2.33 1.8-2.7 3.3-.53 2.63-.15 5.33 1.2 7.66.38.75 1.05 1.13 1.5.98s.75-.83.68-1.65c-.08-.6-.15-1.2-.15-1.8h.08c0-.38 0-.68 0-1.05-.08-2.1 1.5-3.91 3.53-4.13 1.5-.3 3.08-.3 4.66 0 1.8.23 3.23 1.73 3.38 3.53.08.98.08 1.95.08 2.93-.08.38-.08.75 0 1.13.08.3.23.6.53.83.3.08.68 0 .9-.23.38-.3.6-.6.83-.98 1.35-2.48 1.58-5.41.68-8.04-.23-.83-.75-1.5-1.5-1.95-2.18-1.2-4.73-1.88-7.21-1.95-2.36-.09-4.54.44-6.49 1.42zm-45.89-53.56c-.23.3-.38.68-.38 1.13 0 20.73-.08 41.46-.08 62.19 0 .23 0 .38.08.75.83-1.2 1.58-2.25 2.33-3.3.3-.45.53-.98.45-1.5 0-9.84 0-19.75 0-29.59.08-.6-.23-1.28-.83-1.58-1.58-.9-1.8-2.48-.68-3.91.3-.38.6-.75.98-1.05.3-.3.53-.68.45-1.13 0-7.96 0-16 0-23.96 0-.23 0-.38-.08-.83-.74 1.05-1.56 1.88-2.24 2.78zm-14.87 40.71c0 7.89 1.5 15.62 4.43 22.91v-45.89c-2.93 7.36-4.43 15.17-4.43 22.98zm122.8 21.71c2.63-6.91 3.98-14.27 3.98-21.71s-1.28-14.72-3.98-21.63zm-12.84-64.45v7.29 47.17c0 .45.15.9.38 1.28.68 1.05 1.35 2.1 2.03 3.15.08.15.23.3.45.53v-.83c0-7.14 0-14.27 0-21.41 0-11.12-.08-22.23-.08-33.42 0-.3 0-.6-.15-.83-.75-.98-1.65-1.95-2.48-2.93zm-88.86 56.41h.15c.9-1.43 1.8-2.78 2.7-4.21.15-.23.15-.53.15-.83 0-6.46 0-12.84 0-19.3 0-.23 0-.45 0-.68h-2.93v25.01h-.07zm82.55-44.24c-.3.15-.53.53-.53.83v30.72c0 .23 0 .45.08.68.9 1.58 1.8 3.08 2.78 4.58 0 0 .08-.08.15-.08v-38.23c-.83.53-1.65 1.05-2.48 1.5zm-75.86 19.23v13.82c2.55-4.51 4.66-9.31 6.23-14.27zm68.65-15.62c-.38.15-.68.53-.6.9v9.09c0 4.28 0 4.28 1.8 8.11.53 1.13 1.13 2.25 1.65 3.38h.08v-22.76c-.98.45-1.95.9-2.93 1.28zm-43.64 14.64c-.15.08-.23.68-.15.98.23.75.75 1.28 1.5 1.43 1.28.38 2.63.75 3.98 1.13.08-.53-.15-.98-.6-1.2-.53-.3-1.13-.53-1.65-.68-.6-.15-1.2-.38-1.35-1.13-.08-.23-.23-.45-.53-.6-.23-.08-.45-.15-.75-.15-.15.15-.3.15-.45.22zm-31.17-35.37c-.38.3-.6.75-.6 1.2v25.01.75c.9-.53 1.73-1.05 2.48-1.43.38-.15.6-.53.53-.9 0-8.64 0-17.28 0-25.91 0-.23 0-.38-.08-.75-.83.75-1.58 1.43-2.33 2.03zm60.31-12.1v13.14c0 .3 0 .6.08.83.38 1.88.75 3.76 1.05 5.63.08.45.08.83-.15 1.2-.6 1.05-1.35 2.1-2.18 3.08-1.95 1.95-4.13 3.61-6.61 4.88-5.56 3.08-11.57 5.33-17.8 6.53.15 0 .23 0 .38.08 3.3.08 6.61-.15 9.84-.75 6.46-1.28 12.62-3.68 18.25-7.21.38-.23.6-.6.6-1.05 0-5.18 0-10.44 0-15.62 0-3.23 0-6.46 0-9.69 0-.23 0-.6-.15-.6-1.05-.38-2.1-.75-3.3-1.2zm-46.79 24.57c4.28-3.46 8.49-6.83 12.77-10.29-.15-.08-.38-.15-.53-.15-2.1-.38-4.13-.9-6.23-1.13-1.73-.08-3.23-1.05-3.98-2.63-.6-1.05-1.28-2.03-2.03-3zm53.93 0c.9-.75 1.8-1.35 2.55-1.95.23-.23.38-.53.38-.83.08-1.73 0-3.53 0-5.26 0-4.21 0-8.34 0-12.54 0-.23-.08-.6-.23-.68-.9-.45-1.8-.9-2.78-1.35zm14.12-5.11c0 .15.15.3.3.38.9.15 1.8.23 2.7.38 0-2.33 0-4.58 0-6.76 0-.15-.08-.3-.15-.38-.9-.83-1.8-1.58-2.85-2.48zm-7.29.15h3.46c0-.08.08-.15.08-.23 0-3.76 0-7.51 0-11.27 0-.15-.08-.38-.23-.53-1.05-.75-2.1-1.43-3.3-2.18zm-23.58 23.66c.15.75.3 1.5.45 2.25.08.3.23.68.38.98.3.68 1.05 1.05 1.73.75.15-.08.23-.15.38-.23 1.95-1.13 3.91-2.25 5.86-3.46.45-.3 1.05-.38 1.58-.08 1.8.83 3.15 2.1 3.38 4.21.15 1.5-.08 2.48-1.58 3.15-1.8.83-3.76 1.43-5.78 1.73-2.18.3-4.06 1.58-5.18 3.38-.23.23-.38.53-.6.75-1.67-4.49-2.42-8.93-.62-13.43zm7.96 4.35c-.23.08-.45.3-.53.53-.23.83-.83.98-1.58 1.13-.53.15-1.05.38-1.58.6-.45.23-.68.68-.68 1.2 1.35-.38 2.63-.68 3.91-1.13.83-.15 1.43-.75 1.65-1.58.08-.3-.08-.83-.23-.9-.15-.08-.23-.08-.38-.08-.05.08-.35.16-.58.23z" fill="#2b2b2a"/></svg>